<?xml version="1.0" standalone="no"?>
<!DOCTYPE svg PUBLIC "-//W3C//DTD SVG 20010904//EN"
 "http://www.w3.org/TR/2001/REC-SVG-20010904/DTD/svg10.dtd">
<svg version="1.0" xmlns="http://www.w3.org/2000/svg"
 width="613.000000pt" height="613.000000pt" viewBox="0 0 613.000000 613.000000"
 preserveAspectRatio="xMidYMid meet">
<metadata>
Created by potrace 1.14, written by Peter Selinger 2001-2017
</metadata>
<g transform="translate(0.000000,613.000000) scale(0.100000,-0.100000)"
fill="#000000" stroke="none">
<path d="M3050 6123 c-22 -3 -140 -21 -181 -28 -35 -7 -129 -37 -209 -67 -357
-135 -645 -400 -746 -688 -73 -209 -65 -443 23 -665 31 -76 36 -100 34 -160
-1 -38 5 -99 14 -137 13 -50 14 -75 7 -96 -14 -42 -12 -188 4 -249 30 -117
128 -279 239 -394 30 -32 63 -80 76 -110 75 -178 175 -326 311 -462 59 -59
116 -124 127 -145 16 -32 39 -140 56 -267 3 -22 8 -54 11 -72 4 -26 -3 -42
-40 -91 -57 -75 -58 -75 -140 -106 -51 -20 -76 -24 -99 -18 -82 21 -232 -24
-306 -93 -97 -90 -151 -280 -122 -429 9 -51 -3 -116 -20 -99 -13 13 -86 205
-103 271 -22 84 -26 184 -11 242 7 28 13 53 14 55 0 11 14 101 18 120 2 11 6
52 8 91 5 97 -12 129 -117 221 -34 30 -37 36 -33 75 3 24 7 89 9 146 3 57 8
107 11 112 3 5 7 68 9 142 2 73 9 152 15 176 21 77 21 171 1 225 -23 59 -44
84 -87 102 -36 15 -100 13 -132 -5 -60 -31 -90 -118 -83 -235 6 -114 6 -157
-3 -215 -4 -30 -8 -86 -7 -125 l0 -70 -17 56 c-10 30 -34 89 -54 130 -19 41
-38 90 -41 109 -10 69 -46 167 -75 207 -29 40 -100 83 -136 83 -10 0 -37 -9
-60 -20 -100 -49 -105 -211 -10 -370 18 -30 40 -82 50 -115 9 -33 25 -75 35
-95 14 -28 80 -212 80 -224 0 -2 -20 -7 -45 -11 -77 -11 -143 -84 -152 -167
-5 -43 30 -129 69 -168 13 -14 43 -52 65 -85 23 -33 52 -71 67 -84 14 -13 31
-40 37 -60 19 -60 57 -116 108 -164 41 -37 53 -56 70 -114 22 -74 54 -224 97
-448 14 -77 27 -147 29 -155 2 -8 13 -62 25 -120 45 -215 86 -298 197 -400
166 -153 248 -161 316 -29 65 124 215 509 231 591 19 102 18 101 29 82 5 -10
14 -59 19 -108 10 -90 10 -131 5 -381 -5 -219 7 -243 125 -243 83 0 670 -12
856 -17 113 -3 125 -1 142 17 l19 21 12 -27 c7 -14 19 -27 28 -27 49 -4 299
-4 314 -1 55 13 86 217 66 427 -5 44 -4 96 1 115 13 52 23 184 21 275 -1 44
-3 177 -4 295 -3 268 -16 316 -106 406 -64 65 -205 114 -310 108 -30 -2 -60 1
-66 6 -6 5 -35 15 -65 21 -56 12 -78 30 -137 113 -18 25 -31 51 -29 58 3 7 7
38 11 68 3 30 8 69 10 85 3 17 7 41 9 55 19 117 48 184 99 230 112 99 179 176
256 294 44 67 141 254 141 272 0 3 30 38 66 78 97 103 164 209 217 337 32 78
41 219 20 303 -9 34 -9 54 -2 68 21 39 31 144 19 189 -5 17 -1 38 12 65 32 64
85 254 93 329 13 130 6 227 -26 345 -74 273 -301 524 -614 679 -118 59 -121
60 -205 90 -147 53 -349 85 -460 74z"/>
</g>
</svg>
